<svg id="_x33_0" enable-background="new 0 0 62 62" height="512" viewBox="0 0 62 62" width="512" xmlns="http://www.w3.org/2000/svg" xmlns:xlink="http://www.w3.org/1999/xlink"><linearGradient id="SVGID_1_" gradientUnits="userSpaceOnUse" x1="31" x2="31" y1="62" y2="0"><stop offset="0" stop-color="#9f2fff"/><stop offset="1" stop-color="#0bb1d3"/></linearGradient><path d="m26 19c0-1.654-1.346-3-3-3s-3 1.346-3 3 1.346 3 3 3 3-1.346 3-3zm-4 0c0-.551.449-1 1-1s1 .449 1 1-.449 1-1 1-1-.449-1-1zm6 14c0-1.654-1.346-3-3-3s-3 1.346-3 3 1.346 3 3 3 3-1.346 3-3zm-4 0c0-.552.449-1 1-1s1 .448 1 1-.449 1-1 1-1-.448-1-1zm-7-10c-1.654 0-3 1.346-3 3s1.346 3 3 3 3-1.346 3-3-1.346-3-3-3zm0 4c-.551 0-1-.449-1-1s.449-1 1-1 1 .449 1 1-.449 1-1 1zm15 3c2.206 0 4-1.794 4-4s-1.794-4-4-4-4 1.794-4 4 1.794 4 4 4zm0-6c1.103 0 2 .897 2 2s-.897 2-2 2-2-.897-2-2 .897-2 2-2zm25 8c-1.563 0-3.041.754-3.979 2h-1.339c-.374-1.832-1.093-3.588-2.111-5.157l1.843-1.843h.086c2.481 0 4.5-2.019 4.5-4.5 0-.925-.282-1.784-.762-2.5h1.762c1.654 0 3-1.346 3-3s-1.346-3-3-3h-4c-1.654 0-3 1.346-3 3 0 .425.091.828.252 1.195-1.27.366-2.315 1.255-2.852 2.446-.716-.396-1.526-.641-2.4-.641-1.563 0-3.041.754-3.979 2h-1.339c-.374-1.832-1.093-3.588-2.111-5.157l1.843-1.843h.086c2.082 0 3.822-1.428 4.333-3.352.425.218.9.352 1.41.352.833 0 1.617-.324 2.207-.914l5.757-5.757c.59-.589.915-1.373.915-2.208-.001-1.721-1.401-3.121-3.122-3.121-.833 0-1.617.324-2.207.914l-5.757 5.757c-.175.174-.318.37-.445.575-.807-.767-1.892-1.246-3.091-1.246-2.481 0-4.5 2.019-4.5 4.5v.086l-1.843 1.843c-1.569-1.018-3.325-1.737-5.157-2.111v-1.339c1.246-.938 2-2.416 2-3.979 0-2.757-2.243-5-5-5s-5 2.243-5 5c0 1.563.754 3.041 2 3.979v1.339c-1.832.374-3.588 1.093-5.157 2.111l-1.843-1.843v-.086c0-2.481-2.019-4.5-4.5-4.5s-4.5 2.019-4.5 4.5 2.019 4.5 4.5 4.5h.086l1.843 1.843c-1.018 1.569-1.737 3.325-2.111 5.157h-1.339c-.938-1.246-2.416-2-3.979-2-2.757 0-5 2.243-5 5s2.243 5 5 5c1.563 0 3.041-.754 3.979-2h1.339c.374 1.832 1.093 3.588 2.111 5.156l-1.843 1.844h-.086c-2.481 0-4.5 2.019-4.5 4.5s2.019 4.5 4.5 4.5 4.5-2.019 4.5-4.5v-.086l1.843-1.843c1.568 1.018 3.325 1.736 5.157 2.11v1.339c-1.246.939-2 2.416-2 3.979 0 .874.245 1.684.641 2.399-1.565.707-2.641 2.276-2.641 4.102 0 2.481 2.019 4.5 4.5 4.5s4.5-2.019 4.5-4.5v-.086l1.843-1.843c1.568 1.018 3.325 1.736 5.157 2.11v1.339c-1.246.939-2 2.416-2 3.979 0 2.757 2.243 5 5 5s5-2.243 5-5c0-1.563-.754-3.04-2-3.979v-1.339c1.832-.374 3.588-1.093 5.157-2.11l1.843 1.843v.086c0 2.481 2.019 4.5 4.5 4.5s4.5-2.019 4.5-4.5-2.019-4.5-4.5-4.5h-.086l-1.843-1.843c1.018-1.568 1.737-3.325 2.111-5.157h1.339c.939 1.246 2.416 2 3.979 2 2.757 0 5-2.243 5-5s-2.243-5-5-5zm1-15c0 .551-.449 1-1 1h-1v-2h1c.551 0 1 .449 1 1zm-5-1h1v2h-1c-.551 0-1-.449-1-1s.449-1 1-1zm-1.5 4c1.378 0 2.5 1.122 2.5 2.5s-1.122 2.5-2.5 2.5h-.914l-.652.652c.029-.216.066-.429.066-.652 0-1.09-.36-2.092-.955-2.914.198-1.19 1.215-2.086 2.455-2.086zm-3.379-12.414-1.586-1.586 1.586-1.586 1.586 1.586zm2.879-5.586c.618 0 1.121.503 1.121 1.121 0 .3-.116.582-.328.793l-.672.672-1.586-1.586.671-.671c.21-.209.499-.329.794-.329zm-6.55 6.086.672-.672 1.585 1.586-.671.671c-.209.209-.498.329-.793.329-.619 0-1.122-.503-1.122-1.121 0-.3.117-.581.329-.793zm-20.947 34.333.497-.289v-4.156l-.858-.123c-2.101-.301-4.115-1.125-5.824-2.382l-.692-.509-3.626 3.626v.914c0 1.379-1.122 2.5-2.5 2.5s-2.5-1.121-2.5-2.5 1.122-2.5 2.5-2.5h.914l3.626-3.626-.509-.692c-1.257-1.709-2.081-3.724-2.382-5.824l-.123-.858h-4.156l-.289.497c-.548.941-1.513 1.503-2.581 1.503-1.654 0-3-1.346-3-3s1.346-3 3-3c1.068 0 2.033.562 2.581 1.503l.289.497h4.156l.123-.858c.301-2.1 1.125-4.114 2.382-5.824l.509-.692-3.626-3.626h-.914c-1.378 0-2.5-1.122-2.5-2.5s1.122-2.5 2.5-2.5 2.5 1.122 2.5 2.5v.914l3.626 3.626.692-.509c1.71-1.257 3.724-2.081 5.824-2.382l.858-.123v-4.156l-.497-.289c-.941-.548-1.503-1.513-1.503-2.581 0-1.654 1.346-3 3-3s3 1.346 3 3c0 1.068-.562 2.033-1.503 2.581l-.497.289v4.156l.858.123c2.1.301 4.114 1.125 5.824 2.382l.692.509 3.626-3.626v-.914c0-1.378 1.122-2.5 2.5-2.5s2.5 1.122 2.5 2.5-1.122 2.5-2.5 2.5h-.914l-3.626 3.626.509.692c1.257 1.71 2.081 3.724 2.382 5.824l.123.858h4.156l.289-.497c.548-.941 1.513-1.503 2.581-1.503 1.654 0 3 1.346 3 3s-1.346 3-3 3c-1.068 0-2.033-.562-2.581-1.503l-.289-.497h-4.156l-.123.858c-.301 2.1-1.125 4.114-2.382 5.824l-.509.692 3.626 3.626h.914c1.378 0 2.5 1.121 2.5 2.5s-1.122 2.5-2.5 2.5-2.5-1.121-2.5-2.5v-.914l-3.626-3.626-.692.509c-1.709 1.257-3.723 2.081-5.824 2.382l-.858.123v4.156l.497.289c.941.548 1.503 1.513 1.503 2.581 0 1.654-1.346 3-3 3s-3-1.346-3-3c0-1.068.562-2.033 1.503-2.581zm19.276-5.981c.346-.27.768-.438 1.221-.438 1.103 0 2 .897 2 2s-.897 2-2 2c-.017 0-.033-.005-.05-.005.018-.165.05-.326.05-.495 0-1.185-.47-2.257-1.221-3.062zm-5.779 7.562c.551 0 1 .448 1 1s-.449 1-1 1-1-.448-1-1 .449-1 1-1zm-12 7.5c0 1.379-1.122 2.5-2.5 2.5s-2.5-1.121-2.5-2.5c0-1.24.895-2.257 2.085-2.455.823.595 1.825.955 2.915.955.223 0 .436-.037.652-.066l-.652.652zm32-11.5c-1.068 0-2.033-.562-2.581-1.503l-.289-.497h-4.156l-.123.858c-.301 2.101-1.125 4.114-2.382 5.823l-.509.692 3.626 3.627h.914c1.378 0 2.5 1.121 2.5 2.5s-1.122 2.5-2.5 2.5-2.5-1.121-2.5-2.5v-.914l-3.626-3.626-.692.509c-1.709 1.257-3.723 2.081-5.824 2.382l-.858.123v4.156l.497.289c.941.548 1.503 1.513 1.503 2.581 0 1.654-1.346 3-3 3s-3-1.346-3-3c0-1.068.562-2.033 1.503-2.581l.497-.289v-4.156l-.858-.123c-2.1-.301-4.113-1.124-5.822-2.38.421-.732.68-1.568.68-2.471 0-1.563-.754-3.04-2-3.979v-1.339c1.832-.374 3.588-1.093 5.157-2.11l1.843 1.842v.086c0 1.02.354 1.951.928 2.707-1.124.433-1.928 1.517-1.928 2.793 0 1.654 1.346 3 3 3s3-1.346 3-3c0-.364-.075-.708-.194-1.031 1.457-.1 2.725-.882 3.473-2.044.237.043.476.075.721.075 2.206 0 4-1.794 4-4s-1.794-4-4-4c-1.131 0-2.19.483-2.938 1.296-.489-.183-1.011-.296-1.562-.296h-.086l-1.843-1.844c1.018-1.568 1.737-3.324 2.111-5.156h1.339c.939 1.246 2.416 2 3.979 2 .903 0 1.739-.259 2.471-.68 1.256 1.71 2.079 3.723 2.38 5.821l.123.859h4.156l.289-.497c.548-.941 1.513-1.503 2.581-1.503 1.654 0 3 1.346 3 3s-1.346 3-3 3zm-53.788 18.091c.034 0 .069 0 .104-.002.821-.025 1.614-.384 2.177-.984l5.569-5.939c.57-.608.87-1.402.843-2.235-.027-.834-.377-1.606-.985-2.177-.608-.57-1.397-.89-2.234-.842-.821.025-1.614.384-2.177.984l-5.569 5.939c-.57.608-.87 1.402-.843 2.235.027.834.377 1.606.985 2.177.582.547 1.335.844 2.13.844zm2.839-4.506-1.636-1.533 1.534-1.636 1.636 1.533zm2.698-5.676c.633.008 1.137.468 1.157 1.085.01.299-.098.584-.303.803l-.65.693-1.636-1.534.649-.693c.202-.215.487-.344.783-.354zm-6.352 6.294.65-.693 1.636 1.534-.649.693c-.202.216-.487.345-.782.354-.597.001-1.137-.467-1.157-1.085-.01-.299.098-.584.302-.803zm15.603 4.797c0-1.654-1.346-3-3-3s-3 1.346-3 3 1.346 3 3 3 3-1.346 3-3zm-4 0c0-.552.449-1 1-1s1 .448 1 1-.449 1-1 1-1-.448-1-1zm45-55c-1.654 0-3 1.346-3 3s1.346 3 3 3 3-1.346 3-3-1.346-3-3-3zm0 4c-.551 0-1-.449-1-1s.449-1 1-1 1 .449 1 1-.449 1-1 1z" fill="url(#SVGID_1_)"/></svg>